<?xml version="1.0" standalone="no"?>
<!DOCTYPE svg PUBLIC "-//W3C//DTD SVG 20010904//EN"
 "http://www.w3.org/TR/2001/REC-SVG-20010904/DTD/svg10.dtd">
<svg version="1.0" xmlns="http://www.w3.org/2000/svg"
 width="840.000000pt" height="743.000000pt" viewBox="0 0 840.000000 743.000000"
 preserveAspectRatio="xMidYMid meet">

<g transform="translate(0.000000,743.000000) scale(0.100000,-0.100000)"
fill="#000000" stroke="none">
<path d="M4105 6737 c-467 -242 -1401 -723 -2330 -1203 -349 -180 -432 -226
-439 -247 -11 -29 27 -111 227 -495 70 -134 127 -245 127 -246 0 -2 -30 -29
-67 -59 -122 -99 -145 -123 -145 -150 0 -30 19 -59 132 -197 47 -58 100 -123
116 -145 17 -22 124 -222 239 -445 114 -223 229 -435 254 -472 25 -36 161
-207 301 -379 140 -171 273 -335 296 -363 42 -54 85 -132 274 -501 62 -121
184 -359 273 -530 88 -170 181 -350 206 -400 30 -58 56 -95 74 -105 26 -15 31
-13 169 59 l142 74 29 -33 30 -33 92 46 92 45 34 -42 c155 -195 236 -289 253
-296 12 -4 31 -4 43 1 11 4 95 68 185 142 89 73 202 164 249 203 47 38 146
118 220 178 74 61 188 154 254 207 269 217 469 380 654 532 121 99 184 142
281 194 69 36 154 82 190 101 36 19 102 64 148 101 69 54 83 69 79 88 -4 20 6
29 69 64 84 46 100 67 85 109 -9 28 -7 31 62 86 40 32 88 72 107 90 19 17 54
49 78 69 25 22 42 46 42 59 0 25 49 -37 -679 859 l-574 706 -141 273 c-78 150
-195 377 -260 503 -690 1339 -920 1782 -934 1793 -9 6 -23 12 -31 12 -9 0
-236 -114 -506 -253z m1008 -887 c284 -551 516 -1004 515 -1005 -2 -2 -212
254 -467 568 -256 314 -461 572 -455 574 34 12 75 46 72 61 -5 24 -34 27 -80
6 l-40 -18 -30 34 c-16 19 -112 138 -214 263 -170 208 -188 228 -214 225 -20
-2 -253 -186 -796 -628 -422 -344 -776 -631 -785 -638 -16 -11 -22 -4 -60 69
-48 92 -62 109 -91 109 -11 0 -162 -73 -335 -162 -261 -135 -315 -167 -320
-187 -5 -19 14 -65 75 -187 45 -89 82 -164 82 -166 0 -13 -182 -150 -189 -142
-24 25 -322 617 -314 624 4 5 508 266 1118 581 611 315 1308 675 1550 800 242
125 444 227 450 225 5 -1 243 -454 528 -1006z m-767 405 c71 -88 161 -199 199
-247 39 -47 324 -398 635 -780 310 -381 656 -808 769 -948 112 -140 226 -280
252 -310 141 -163 907 -1115 903 -1122 -3 -4 -72 -62 -154 -127 -82 -66 -198
-160 -257 -209 -59 -48 -288 -234 -507 -413 -220 -178 -686 -557 -1035 -841
l-636 -518 -37 43 c-20 24 -99 120 -175 214 -194 240 -1719 2116 -2256 2776
-429 528 -447 551 -430 568 10 10 63 54 118 99 55 45 163 132 240 195 77 62
255 207 396 322 140 114 579 471 975 793 395 321 748 609 783 638 52 44 66 51
76 40 6 -7 70 -85 141 -173z m-1865 -977 c20 -40 28 -67 23 -75 -5 -7 -106
-92 -224 -188 -211 -171 -215 -174 -231 -153 -23 30 -114 217 -108 222 11 11
485 255 496 255 7 1 27 -27 44 -61z m551 -2888 c123 -151 401 -493 619 -760
217 -267 398 -490 402 -497 5 -8 -36 -35 -120 -81 -158 -87 -241 -127 -247
-121 -8 8 -428 821 -469 908 -34 73 -140 280 -384 751 -35 69 -55 114 -44 100
10 -14 120 -149 243 -300z"/>
<path d="M4117 5439 c-245 -196 -377 -307 -377 -319 0 -20 26 -34 43 -23 48
30 747 597 747 607 0 13 -20 36 -30 36 -4 0 -176 -135 -383 -301z"/>
<path d="M4249 5642 c-294 -231 -484 -388 -484 -402 0 -38 59 1 320 209 340
271 313 247 294 266 -14 14 -27 7 -130 -73z"/>
<path d="M3608 4823 c-16 -15 -14 -22 23 -94 21 -43 39 -81 39 -84 0 -2 -33
16 -74 40 -81 49 -88 52 -105 31 -10 -12 6 -24 90 -70 56 -31 105 -56 109 -56
4 0 13 7 20 15 10 12 4 35 -35 125 -26 61 -48 110 -49 110 -1 0 -9 -7 -18 -17z"/>
<path d="M2215 4516 c-201 -164 -261 -218 -263 -237 -2 -20 32 -68 164 -230
342 -419 333 -409 358 -409 24 0 90 50 425 324 118 97 145 131 124 159 -24 31
-365 451 -425 525 -56 66 -74 82 -96 81 -20 0 -95 -56 -287 -213z m456 -121
c229 -282 229 -281 228 -291 0 -8 -132 -117 -363 -301 l-54 -43 -200 248
c-110 136 -201 251 -202 255 -1 5 92 85 207 178 159 128 211 165 219 156 6 -7
81 -97 165 -202z"/>
<path d="M3399 4631 c-38 -38 -38 -76 1 -129 35 -48 57 -62 100 -62 61 0 111
81 81 129 -15 23 -42 -5 -35 -35 8 -30 -11 -54 -41 -54 -27 0 -95 71 -95 99 0
26 23 42 57 39 39 -3 58 9 42 28 -21 25 -77 17 -110 -15z"/>
<path d="M4343 4089 c-837 -665 -933 -744 -940 -768 -8 -31 8 -55 39 -59 26
-3 100 54 848 651 124 99 270 215 325 259 110 88 125 103 125 129 0 23 -27 49
-50 49 -11 0 -167 -117 -347 -261z"/>
<path d="M4925 4048 c-23 -13 -20 -11 -606 -478 -245 -195 -493 -393 -552
-439 -88 -69 -107 -89 -107 -111 0 -33 17 -50 50 -50 19 0 188 130 658 505
673 538 665 530 610 569 -26 19 -27 19 -53 4z"/>
<path d="M5182 3663 c-27 -21 -269 -213 -537 -428 -269 -214 -534 -426 -589
-470 -55 -44 -102 -88 -104 -98 -5 -25 26 -57 53 -57 15 0 225 162 596 458
316 251 600 477 632 502 65 50 79 80 52 110 -26 29 -47 25 -103 -17z"/>
<path d="M5429 3303 c-41 -31 -130 -102 -199 -158 -69 -55 -322 -257 -562
-449 -386 -306 -438 -351 -438 -375 0 -33 16 -51 46 -51 28 0 1275 993 1288
1026 11 27 -15 64 -45 64 -9 0 -50 -26 -90 -57z"/>
<path d="M3013 3257 c-105 -84 -105 -92 -13 -202 52 -63 77 -85 95 -85 26 0
166 111 177 141 10 27 1 45 -60 122 -55 68 -78 87 -106 87 -9 0 -50 -28 -93
-63z m121 -143 l-29 -23 -29 31 -29 32 29 23 29 23 29 -31 28 -32 -28 -23z"/>
<path d="M6400 3083 c-161 -125 -638 -509 -647 -521 -14 -17 -1 -42 21 -42 22
0 701 550 701 568 0 27 -37 25 -75 -5z"/>
<path d="M6190 2731 c-265 -212 -335 -273 -335 -291 0 -13 5 -25 12 -27 9 -3
624 477 687 538 16 15 17 21 6 33 -7 9 -18 16 -24 15 -6 0 -162 -121 -346
-268z"/>
<path d="M3286 2920 c-42 -33 -76 -64 -76 -69 0 -5 -3 -16 -6 -24 -3 -9 23
-49 65 -99 64 -78 87 -98 111 -98 14 0 154 121 164 140 14 30 0 61 -64 138
-78 93 -91 94 -194 12z m128 -94 l21 -27 -25 -19 c-30 -23 -38 -22 -64 14
l-21 27 25 19 c30 23 38 22 64 -14z"/>
<path d="M3587 2563 c-81 -62 -99 -86 -87 -118 5 -11 38 -55 75 -97 45 -53 73
-78 88 -78 12 0 55 28 97 63 100 84 102 100 25 197 -55 69 -80 90 -108 90 -8
0 -48 -26 -90 -57z m133 -122 c0 -4 -11 -18 -24 -30 l-23 -22 -28 33 -27 32
28 24 28 24 23 -26 c13 -15 23 -31 23 -35z"/>
<path d="M3851 2241 c-86 -68 -97 -84 -83 -115 11 -24 118 -157 136 -168 23
-16 47 -6 108 43 119 97 121 105 42 204 -92 117 -100 118 -203 36z m119 -93
l23 -31 -29 -23 -29 -23 -22 27 c-28 34 -28 46 0 65 30 21 30 21 57 -15z"/>
<path d="M3240 1826 c0 -2 8 -10 18 -17 15 -13 16 -12 3 4 -13 16 -21 21 -21
13z"/>
<path d="M3280 1776 c0 -2 8 -10 18 -17 15 -13 16 -12 3 4 -13 16 -21 21 -21
13z"/>
<path d="M3335 1710 c10 -11 20 -20 23 -20 3 0 -3 9 -13 20 -10 11 -20 20 -23
20 -3 0 3 -9 13 -20z"/>
<path d="M3375 1660 c10 -11 20 -20 23 -20 3 0 -3 9 -13 20 -10 11 -20 20 -23
20 -3 0 3 -9 13 -20z"/>
<path d="M3410 1616 c0 -2 8 -10 18 -17 15 -13 16 -12 3 4 -13 16 -21 21 -21
13z"/>
<path d="M3465 1550 c10 -11 20 -20 23 -20 3 0 -3 9 -13 20 -10 11 -20 20 -23
20 -3 0 3 -9 13 -20z"/>
<path d="M3505 1500 c10 -11 20 -20 23 -20 3 0 -3 9 -13 20 -10 11 -20 20 -23
20 -3 0 3 -9 13 -20z"/>
<path d="M3555 1440 c10 -11 20 -20 23 -20 3 0 -3 9 -13 20 -10 11 -20 20 -23
20 -3 0 3 -9 13 -20z"/>
<path d="M3595 1390 c10 -11 20 -20 23 -20 3 0 -3 9 -13 20 -10 11 -20 20 -23
20 -3 0 3 -9 13 -20z"/>
<path d="M3635 1340 c10 -11 20 -20 23 -20 3 0 -3 9 -13 20 -10 11 -20 20 -23
20 -3 0 3 -9 13 -20z"/>
<path d="M3670 1296 c0 -2 8 -10 18 -17 15 -13 16 -12 3 4 -13 16 -21 21 -21
13z"/>
</g>
</svg>
